<?xml version="1.0" encoding="utf-8"?>
<!-- Generator: Adobe Illustrator 26.3.1, SVG Export Plug-In . SVG Version: 6.00 Build 0)  -->
<svg version="1.1" id="Layer_1" xmlns="http://www.w3.org/2000/svg" xmlns:xlink="http://www.w3.org/1999/xlink" x="0px" y="0px"
	 viewBox="0 0 128 128" style="enable-background:new 0 0 128 128;" xml:space="preserve">
<style type="text/css">
	.st0{fill:none;stroke:#77CAF1;stroke-width:6.2976;stroke-miterlimit:10;}
	.st1{fill:#77CAF1;}
</style>
<path class="st0" d="M44,65h-3.32L27,83.68L26.93,65h-6.38c-3.6,0-6.55-3.53-6.55-7.85v-29.3c0-4.32,2.95-7.85,6.55-7.85h51.9
	c3.6,0,6.55,3.53,6.55,7.85V38"/>
<path class="st0" d="M55.55,89h31.77L101,107.68L101.07,89h6.38c3.6,0,6.55-3.53,6.55-7.85v-29.3c0-4.32-2.95-7.85-6.55-7.85h-51.9
	c-3.6,0-6.55,3.53-6.55,7.85v29.3C49,85.47,51.95,89,55.55,89z"/>
<circle class="st1" cx="65" cy="72" r="4"/>
<circle class="st1" cx="76" cy="72" r="4"/>
<circle class="st1" cx="86" cy="72" r="4"/>
</svg>
